Coordinates
version=1
nRows=14
nColumns=38
inDegrees=no

Units are S.I. units (second, meters, Newtons, ...)
If the header above contains a line with 'inDegrees', this indicates whether rotational values are in degrees (yes) or radians (no).

endheader
time	pelvis_tilt	pelvis_list	pelvis_rotation	pelvis_tx	pelvis_ty	pelvis_tz	hip_flexion_r	hip_adduction_r	hip_rotation_r	knee_angle_r	ankle_angle_r	subtalar_angle_r	mtp_angle_r	hip_flexion_l	hip_adduction_l	hip_rotation_l	knee_angle_l	ankle_angle_l	subtalar_angle_l	mtp_angle_l	lumbar_extension	lumbar_bending	lumbar_rotation	arm_flex_r	arm_add_r	arm_rot_r	elbow_flex_r	pro_sup_r	wrist_flex_r	wrist_dev_r	arm_flex_l	arm_add_l	arm_rot_l	elbow_flex_l	pro_sup_l	wrist_flex_l	wrist_dev_l
149.95	0.717785	1.22628	1.02413	1.58601	1.2341	0.989586	0.297238	0.117062	-0.457726	0.266041	-0.10288	0	0	0.691845	-0.274988	-0.261767	0.775334	-0.156174	0	0	-0.264069	0.321523	0.193173	-0.0935416	-0.45185	-0.18003	1.04775	1.5708	0	0	0.183014	-0.360174	1.03676	0.689649	1.00522	0	0
149.96	0.726325	1.23036	1.01915	1.58394	1.24562	0.992044	0.272506	0.119879	-0.458301	0.248911	-0.115606	0	0	0.687731	-0.267491	-0.278179	0.724948	-0.170354	0	0	-0.254193	0.318075	0.191956	-0.0966425	-0.450127	-0.174669	1.04045	1.5708	0	0	0.176756	-0.357175	1.04374	0.682788	1.00887	0	0
149.97	0.737072	1.23498	1.01234	1.58169	1.25731	0.994326	0.245661	0.122899	-0.464691	0.22895	-0.132758	0	0	0.681712	-0.259245	-0.293336	0.673405	-0.186493	0	0	-0.244848	0.31538	0.192007	-0.101697	-0.448349	-0.171637	1.03398	1.5708	0	0	0.172161	-0.353636	1.05263	0.675239	1.02028	0	0
149.98	0.747885	1.23962	1.00548	1.57932	1.26908	0.996272	0.218635	0.125861	-0.471246	0.208719	-0.14875	0	0	0.674869	-0.249946	-0.306603	0.621091	-0.20129	0	0	-0.235536	0.312596	0.192064	-0.107035	-0.446541	-0.168835	1.02783	1.5708	0	0	0.167112	-0.350829	1.05853	0.669544	1.0383	0	0
149.99	0.755479	1.24302	1.00079	1.5769	1.28092	0.997747	0.194424	0.12823	-0.474585	0.192069	-0.162796	0	0	0.668501	-0.239763	-0.318604	0.56764	-0.215933	0	0	-0.223677	0.3094	0.190778	-0.110424	-0.44604	-0.160847	1.01929	1.5708	0	0	0.159222	-0.348604	1.05805	0.665122	1.06411	0	0
150	0.75906	1.2446	0.9992	1.57445	1.29286	0.998671	0.172798	0.130417	-0.478407	0.175476	-0.174292	0	0	0.663472	-0.228964	-0.32868	0.513217	-0.230917	0	0	-0.208854	0.306149	0.189866	-0.114129	-0.445832	-0.151248	1.00944	1.5708	0	0	0.150487	-0.346544	1.05649	0.661879	1.08923	0	0
150.01	0.758934	1.24423	1.00003	1.57204	1.3049	0.999064	0.153141	0.133036	-0.480912	0.157789	-0.185873	0	0	0.659894	-0.218093	-0.336227	0.458197	-0.246693	0	0	-0.1913	0.302871	0.189735	-0.118509	-0.444987	-0.142295	0.999487	1.5708	0	0	0.140716	-0.344375	1.05267	0.659246	1.11311	0	0
150.02	0.756231	1.24294	1.00212	1.56964	1.31705	0.999028	0.135073	0.135367	-0.482556	0.141186	-0.197635	0	0	0.656933	-0.207434	-0.340029	0.403337	-0.262409	0	0	-0.172003	0.299071	0.189631	-0.121907	-0.444514	-0.130787	0.988151	1.5708	0	0	0.129579	-0.342799	1.04563	0.657356	1.14188	0	0
150.03	0.750323	1.24002	1.0055	1.56731	1.32929	0.998555	0.119953	0.137337	-0.480644	0.127422	-0.207112	0	0	0.65537	-0.19771	-0.341276	0.349039	-0.276393	0	0	-0.150402	0.294956	0.190295	-0.124172	-0.445014	-0.115464	0.974834	1.5708	0	0	0.117504	-0.341687	1.03682	0.655999	1.17122	0	0
150.04	0.74327	1.23595	1.00859	1.56505	1.3416	0.997735	0.107134	0.139062	-0.476967	0.116722	-0.215537	0	0	0.654391	-0.188791	-0.34149	0.295551	-0.288245	0	0	-0.128848	0.291243	0.192855	-0.126594	-0.446717	-0.0983297	0.962187	1.5708	0	0	0.104835	-0.34014	1.02392	0.654978	1.20159	0	0
150.05	0.735798	1.23111	1.01119	1.56279	1.35402	0.996639	0.0956122	0.140796	-0.471818	0.107482	-0.223793	0	0	0.65373	-0.180764	-0.340062	0.243996	-0.298441	0	0	-0.107384	0.287599	0.196917	-0.127164	-0.452263	-0.0726171	0.9473	1.5708	0	0	0.0920065	-0.338521	1.00913	0.654694	1.22722	0	0
150.06	0.728999	1.22559	1.0129	1.56054	1.36658	0.995272	0.0859078	0.142259	-0.468726	0.101948	-0.231226	0	0	0.65258	-0.175171	-0.330627	0.194686	-0.309803	0	0	-0.0848232	0.283613	0.199198	-0.121548	-0.461922	-0.0309737	0.925614	1.5708	0	0	0.0771304	-0.338442	0.991178	0.656559	1.24856	0	0
150.07	0.727477	1.22214	1.00914	1.55816	1.37919	0.993882	0.0733985	0.143761	-0.465023	0.0969124	-0.237868	0	0	0.649699	-0.171628	-0.326577	0.150858	-0.318268	0	0	-0.0662266	0.281199	0.203018	-0.121846	-0.464155	-0.0101296	0.912548	1.5708	0	0	0.0652573	-0.337989	0.979615	0.658011	1.25784	0	0
150.08	0.731746	1.22008	1.00135	1.55554	1.39179	0.992514	0.0587839	0.145754	-0.46328	0.0922981	-0.244955	0	0	0.646517	-0.168853	-0.324254	0.112733	-0.325756	0	0	-0.0506575	0.279975	0.204567	-0.121801	-0.464546	0.00632957	0.901413	1.5708	0	0	0.0537043	-0.33766	0.966844	0.660252	1.2597	0	0
